<svg width="21" height="13" viewBox="0 0 21 13" fill="none" xmlns="http://www.w3.org/2000/svg">
    <path d="M5.95826 0.626389C6.34878 0.235865 6.98195 0.235865 7.37247 0.626389C7.76299 1.01691 7.76299 1.65008 7.37247 2.0406L3.74536 5.66683L19.9987 5.66683C20.505 5.66683 20.9233 6.04303 20.9896 6.53114L20.9987 6.66683C20.9987 7.21911 20.551 7.66683 19.9987 7.66683L3.74536 7.66683L7.37247 11.2931C7.72749 11.6481 7.75977 12.2036 7.4693 12.5951L7.37247 12.7073C6.98195 13.0978 6.34878 13.0978 5.95826 12.7073L0.624924 7.37394L0.540394 7.2779C0.538108 7.27494 0.535838 7.27197 0.533584 7.26899C0.522932 7.255 0.512945 7.24104 0.50336 7.2269C0.488646 7.20504 0.474449 7.18217 0.461171 7.15872C0.450301 7.13966 0.440109 7.12015 0.430605 7.10039C0.419291 7.07685 0.40863 7.05229 0.398949 7.02724C0.393402 7.01277 0.388436 6.99895 0.383782 6.98505C0.374137 6.95654 0.365592 6.9266 0.358442 6.89612C0.354717 6.8798 0.351466 6.86421 0.348589 6.84856C0.337758 6.79041 0.332031 6.72929 0.332031 6.66683L0.337339 6.77003C0.334597 6.74345 0.332917 6.71678 0.3323 6.69009L0.332031 6.66683C0.332031 6.65916 0.332118 6.65151 0.332289 6.64388C0.332862 6.61776 0.334551 6.59065 0.337339 6.56362C0.340145 6.53607 0.343931 6.50984 0.348714 6.48395C0.351465 6.46945 0.354718 6.45386 0.358344 6.43834C0.365593 6.40706 0.374137 6.37712 0.384005 6.34778C0.388435 6.33471 0.393402 6.32089 0.398684 6.30716C0.40863 6.28137 0.419292 6.25681 0.430885 6.23279C0.440109 6.21351 0.450301 6.194 0.461179 6.17477C0.474449 6.15148 0.488646 6.12862 0.503715 6.10639C0.538481 6.05492 0.579003 6.00564 0.624924 5.95972L0.533584 6.06467C0.561592 6.02759 0.592125 5.99252 0.624924 5.95972L5.95826 0.626389Z" fill="white"/>
</svg>
