<svg width="20" height="20" viewBox="0 0 20 20" fill="none" xmlns="http://www.w3.org/2000/svg">
  <path d="M0.414214 9.9665C0.414214 9.41421 0.861929 8.9665 1.41421 8.9665L8.96517 8.96618L8.9665 1.41421C8.9665 0.912137 9.33651 0.496481 9.81873 0.425057L9.9665 0.414213C10.5188 0.414213 10.9665 0.861928 10.9665 1.41421L10.9658 8.96618L18.5188 8.9665C19.0209 8.9665 19.4365 9.33651 19.5079 9.81873L19.5188 9.9665C19.5188 10.5188 19.0711 10.9665 18.5188 10.9665L10.9658 10.9668L10.9665 18.5188C10.9665 19.0209 10.5965 19.4365 10.1143 19.5079L9.9665 19.5188C9.41422 19.5188 8.9665 19.0711 8.9665 18.5188L8.96517 10.9668L1.41421 10.9665C0.912136 10.9665 0.496481 10.5965 0.425056 10.1143L0.414214 9.9665Z" fill="#FF6D2E"/>
</svg>
