<svg width="10" height="10" viewBox="0 0 10 10" fill="none" xmlns="http://www.w3.org/2000/svg">
<path d="M4.79167 0C5.13685 0 5.41667 0.279822 5.41667 0.625V4.16667H8.95833C9.27475 4.16667 9.53624 4.4018 9.57763 4.70686L9.58333 4.79167C9.58333 5.13685 9.30351 5.41667 8.95833 5.41667H5.41583L5.41667 8.95833C5.41667 9.27475 5.18154 9.53624 4.87648 9.57763L4.79167 9.58333C4.44649 9.58333 4.16667 9.30351 4.16667 8.95833L4.16583 5.41667H0.625C0.308587 5.41667 0.0470907 5.18154 0.00570536 4.87648L0 4.79167C0 4.44649 0.279822 4.16667 0.625 4.16667H4.16667V0.625C4.16667 0.308587 4.4018 0.0470907 4.70686 0.00570536L4.79167 0Z" fill="white"/>
</svg>
