<svg xmlns="http://www.w3.org/2000/svg" xmlns:xlink="http://www.w3.org/1999/xlink" width="108.57413" height="108.57461" viewBox="0 0 108.57413 108.57461"><defs><style>.cls-1{fill:url(#linear-gradient);}.cls-2{fill:url(#linear-gradient-2);}.cls-3{opacity:0.5;fill:url(#linear-gradient-3);}</style><linearGradient id="linear-gradient" x1="54.28706" y1="8.18444" x2="54.28706" y2="116.75905" gradientTransform="matrix(1, 0, 0, -1, 0, 116.75905)" gradientUnits="userSpaceOnUse"><stop offset="0.09375" stop-color="#3b4046"/><stop offset="1" stop-color="#2d3037"/></linearGradient><linearGradient id="linear-gradient-2" x1="48.62315" y1="86.51194" x2="48.62315" y2="8.22825" gradientTransform="matrix(1, 0, 0, -1, 0, 116.75905)" gradientUnits="userSpaceOnUse"><stop offset="0" stop-color="#2fb368"/><stop offset="1" stop-color="#1aaa1c"/></linearGradient><linearGradient id="linear-gradient-3" x1="79.54591" y1="90.53367" x2="79.54591" y2="20.95609" gradientTransform="matrix(1, 0, 0, 1, 0, 0)" xlink:href="#linear-gradient-2"/></defs><g id="Layer_2" data-name="Layer 2"><g id="Layer_1-2" data-name="Layer 1"><path class="cls-1" d="M108.57413,54.28711a54.28728,54.28728,0,0,1-54.287,54.2875h0A54.28751,54.28751,0,0,1,0,54.28711H0A54.28718,54.28718,0,0,1,54.28713,0h0a54.287,54.287,0,0,1,54.287,54.28711Z"/><path class="cls-2" d="M61.31724,64.57468A19.584,19.584,0,1,0,35.54862,64.572a34.307,34.307,0,0,0-21.003,26.68115A54.118,54.118,0,0,0,52.5532,108.5308c3.37286-.07135,6.59442-.23779,9.59283-.52978a53.90588,53.90588,0,0,0,18.47278-6.24036,7.82613,7.82613,0,0,0,2.08185-5.42487A34.2736,34.2736,0,0,0,61.31724,64.57468Z"/><path class="cls-3" d="M84.30033,53.09953l-.679-.31464.55054-.5069a16.589,16.589,0,0,0,5.37006-12.24011V37.59019a16.63,16.63,0,0,0-32.23023-5.765,20.06783,20.06783,0,0,1,4.90186,32.60169,34.78872,34.78872,0,0,1,20.4906,26.10681c5.619-.471,10.3822-1.39459,13.746-2.98944.44464-.21088.86084-.43366,1.25311-.66663a54.336,54.336,0,0,0,4.06849-6.27856c.00054-.03742.00842-.07147.00842-.10913A30.16667,30.16667,0,0,0,84.30033,53.09953Z"/></g></g></svg>