<svg xmlns="http://www.w3.org/2000/svg" xmlns:xlink="http://www.w3.org/1999/xlink" width="108.57391" height="108.57461" viewBox="0 0 108.57391 108.57461"><defs><style>.cls-1{fill:url(#linear-gradient);}.cls-2{fill:url(#linear-gradient-2);}</style><linearGradient id="linear-gradient" x1="54.28696" y1="8.18444" x2="54.28696" y2="116.75905" gradientTransform="matrix(1, 0, 0, -1, 0, 116.75905)" gradientUnits="userSpaceOnUse"><stop offset="0.09375" stop-color="#3b4046"/><stop offset="1" stop-color="#2d3037"/></linearGradient><linearGradient id="linear-gradient-2" x1="53.50148" y1="94.72974" x2="53.50148" y2="31.78804" gradientTransform="matrix(1, 0, 0, -1, 0, 116.75905)" gradientUnits="userSpaceOnUse"><stop offset="0" stop-color="#ff6a49"/><stop offset="1" stop-color="#7d57ff"/></linearGradient></defs><g id="Layer_2" data-name="Layer 2"><g id="Layer_1-2" data-name="Layer 1"><path class="cls-1" d="M108.57391,54.28711a54.28711,54.28711,0,0,1-54.2868,54.2875h0A54.2875,54.2875,0,0,1,0,54.28711H0A54.28718,54.28718,0,0,1,54.28721,0h0a54.28682,54.28682,0,0,1,54.2867,54.28711Z"/><path class="cls-2" d="M37.33711,84.971a6.832,6.832,0,0,1-4.0035-1.2948,6.69351,6.69351,0,0,1-2.726-6.6134l2.258-13.1386a2.33647,2.33647,0,0,0-.6834-2.0819l-9.6487-9.2985a6.67576,6.67576,0,0,1-1.7381-6.9371,6.77246,6.77246,0,0,1,5.5115-4.6125l13.318-1.9347a2.38887,2.38887,0,0,0,1.7901-1.2874l5.9422-11.9616a6.8179,6.8179,0,0,1,6.1206-3.7812h.0074a6.79093,6.79093,0,0,1,6.1205,3.7665l5.9719,11.9469a2.38851,2.38851,0,0,0,1.7901,1.2873l13.3181,1.898a6.76578,6.76578,0,0,1,5.5188,4.5978,6.673,6.673,0,0,1-1.7232,6.9371l-9.6116,9.3279a2.34946,2.34946,0,0,0-.6833,2.0819l2.2877,13.1312a6.68985,6.68985,0,0,1-2.7111,6.6208,6.85526,6.85526,0,0,1-7.1976.5223l-11.9216-6.1867a2.40037,2.40037,0,0,0-2.2135,0l-11.9067,6.2162A6.727,6.727,0,0,1,37.33711,84.971Z"/></g></g></svg>