<svg width="19" height="15" viewBox="0 0 19 15" fill="none" xmlns="http://www.w3.org/2000/svg">
  <path fill-rule="evenodd" clip-rule="evenodd" d="M9.5 1.5C7.77349 1.5 6.21873 2.26501 5.14473 3.49502C4.87248 3.80252 4.39847 3.84002 4.08647 3.56252C3.77522 3.29252 3.74372 2.82001 4.01597 2.50501C5.35923 0.975005 7.31674 0 9.5 0C13.5253 0 16.7698 3.29252 16.8485 7.35004L17.2138 6.97504C17.5033 6.68253 17.978 6.67503 18.2743 6.96754C18.5705 7.25254 18.5758 7.72504 18.2863 8.02504L16.6363 9.71255C16.4953 9.85505 16.3018 9.93755 16.1 9.93755C15.8983 9.93755 15.7048 9.85505 15.5638 9.71255L13.9138 8.02504C13.6243 7.72504 13.6295 7.25254 13.9258 6.96754C14.222 6.67503 14.6968 6.68253 14.9863 6.97504L15.3478 7.34254C15.2683 4.08752 12.665 1.5 9.5 1.5ZM2.89997 5.06253C3.10172 5.06253 3.29522 5.14503 3.43622 5.28753L5.08623 6.97504C5.37573 7.27504 5.37048 7.74754 5.07423 8.03254C4.77798 8.32504 4.30322 8.31754 4.01372 8.02504L3.65222 7.65754C3.73172 10.9126 6.33498 13.5001 9.5 13.5001C11.2265 13.5001 12.7813 12.7351 13.8553 11.5051C14.1275 11.1976 14.6015 11.1601 14.9135 11.4376C15.2248 11.7076 15.2563 12.1801 14.984 12.4951C13.6408 14.0251 11.6833 15.0001 9.5 15.0001C5.47473 15.0001 2.23021 11.7076 2.15146 7.65004L1.78621 8.02504C1.49671 8.31754 1.02196 8.32504 0.725705 8.03254C0.429454 7.74754 0.424203 7.27504 0.713705 6.97504L2.36371 5.28753C2.50471 5.14503 2.69822 5.06253 2.89997 5.06253Z" fill="url(#paint0_linear)"/>
  <defs>
    <linearGradient id="paint0_linear" x1="9.5" y1="0" x2="9.5" y2="15.0001" gradientUnits="userSpaceOnUse">
      <stop stop-color="#FF6D2E"/>
      <stop offset="1" stop-color="#DB441C"/>
    </linearGradient>
  </defs>
</svg>
