<svg width="17" height="19" viewBox="0 0 17 19" fill="none" xmlns="http://www.w3.org/2000/svg">
  <path d="M12.3578 1.25678C12.3578 0.830732 12.0508 0.485352 11.672 0.485352H2.71204C1.23626 0.485352 0.0149002 1.73447 0.0149002 3.31392V15.6568C0.0149002 17.2362 1.23626 18.4854 2.71204 18.4854H11.672C12.0508 18.4854 12.3578 18.14 12.3578 17.7139C12.3578 17.2879 12.0508 16.9425 11.672 16.9425H2.71204C1.96606 16.9425 1.38633 16.3496 1.38633 15.6568L1.38633 3.31392C1.38633 2.62111 1.96606 2.02821 2.71204 2.02821H11.672C12.0508 2.02821 12.3578 1.68283 12.3578 1.25678ZM16.8351 9.07782L16.7604 8.9913L12.6461 4.87701C12.3448 4.57575 11.8564 4.57575 11.5551 4.87701C11.2813 5.15089 11.2564 5.57946 11.4804 5.88146L11.5551 5.96798L14.3513 8.76549L6.64919 8.76535C6.4168 8.76535 6.22441 9.05079 6.19135 9.42278L6.18633 9.53678C6.18633 9.9241 6.35759 10.2447 6.58079 10.2998L6.64919 10.3082L14.3523 10.3085L11.5551 13.1056C11.2813 13.3795 11.2564 13.808 11.4804 14.11L11.5551 14.1965C11.829 14.4704 12.2576 14.4953 12.5596 14.2712L12.6461 14.1965L16.7604 10.0823C17.0343 9.80839 17.0592 9.37982 16.8351 9.07782Z" fill="url(#paint0_linear)"/>
  <defs>
    <linearGradient id="paint0_linear" x1="16.9863" y1="9.48535" x2="0.0149002" y2="9.48535" gradientUnits="userSpaceOnUse">
      <stop stop-color="#FF6D2E"/>
      <stop offset="1" stop-color="#DB441C"/>
    </linearGradient>
  </defs>
</svg>
