<svg width="12" height="12" viewBox="0 0 12 12" fill="none" xmlns="http://www.w3.org/2000/svg">
<path fill-rule="evenodd" clip-rule="evenodd" d="M7.82533 1.08903C8.3887 0.525661 9.3028 0.525661 9.86617 1.08903L10.9111 2.13351C11.4745 2.69736 11.4745 3.61146 10.9111 4.17483L4.17568 10.9103C3.90482 11.1811 3.53774 11.3332 3.15478 11.3332H1.1481C0.882527 11.3332 0.666992 11.1176 0.666992 10.8521V8.8449C0.666992 8.46243 0.819021 8.09534 1.08988 7.82448L7.82533 1.08903ZM9.18589 1.76931C8.99778 1.58168 8.69372 1.58168 8.50561 1.76931L7.60162 2.67331L9.32686 4.39854L10.2308 3.49455C10.4185 3.30644 10.4185 3.00238 10.2308 2.81427L9.18589 1.76931ZM8.64658 5.07882L6.92134 3.35359L1.77016 8.50476C1.67972 8.59521 1.6292 8.71741 1.6292 8.8449V10.371H3.15478C3.28275 10.371 3.40495 10.3204 3.4954 10.23L8.64658 5.07882Z" fill="url(#paint0_linear)"/>
<defs>
<linearGradient id="paint0_linear" x1="6.00033" y1="0.666504" x2="6.00033" y2="11.3332" gradientUnits="userSpaceOnUse">
<stop stop-color="#FF6D2E"/>
<stop offset="1" stop-color="#AB3D1F"/>
</linearGradient>
</defs>
</svg>
