<svg xmlns="http://www.w3.org/2000/svg" xmlns:xlink="http://www.w3.org/1999/xlink" width="108.57435" height="108.57461" viewBox="0 0 108.57435 108.57461"><defs><style>.cls-1{fill:url(#linear-gradient);}.cls-2{fill:url(#linear-gradient-2);}</style><linearGradient id="linear-gradient" x1="54.28717" y1="8.18444" x2="54.28717" y2="116.75905" gradientTransform="matrix(1, 0, 0, -1, 0, 116.75905)" gradientUnits="userSpaceOnUse"><stop offset="0.09375" stop-color="#3b4046"/><stop offset="1" stop-color="#2d3037"/></linearGradient><linearGradient id="linear-gradient-2" x1="53.51988" y1="108.57163" x2="53.51988" y2="28.32383" gradientUnits="userSpaceOnUse"><stop offset="0" stop-color="#ff9600"/><stop offset="1" stop-color="#ff6000"/></linearGradient></defs><g id="Layer_2" data-name="Layer 2"><g id="Layer_1-2" data-name="Layer 1"><path class="cls-1" d="M108.57435,54.28711a54.28745,54.28745,0,0,1-54.2872,54.2875h0A54.28753,54.28753,0,0,1,0,54.28711H0A54.2872,54.2872,0,0,1,54.28715,0h0a54.28718,54.28718,0,0,1,54.2872,54.28711Z"/><path class="cls-2" d="M82.23838,76.93522c-3.82593-5.75031-9.29272-10.28943-15.89892-13.999a19.90517,19.90517,0,0,0,.95837-28.82947,19.35007,19.35007,0,0,0-27.594,0A19.80039,19.80039,0,0,0,33.98893,48.068c0,5.92957,2.58319,11.24866,6.4967,15.93488A34.95949,34.95949,0,0,0,18.921,95.455a54.05537,54.05537,0,0,0,35.247,13.11664c.097-.0003.19354-.00091.29034-.00134a54.03815,54.03815,0,0,0,33.649-11.83319c.00262-.08856.01141-.17413.01141-.264A35.15956,35.15956,0,0,0,82.23838,76.93522Z"/></g></g></svg>