<svg width="10" height="12" viewBox="0 0 10 12" fill="none" xmlns="http://www.w3.org/2000/svg">
<path fill-rule="evenodd" clip-rule="evenodd" d="M1.96451 2.43128C1.96451 1.45689 2.7544 0.666992 3.72879 0.666992C4.27447 0.666992 4.76229 0.914736 5.08594 1.30388C5.40959 0.914736 5.8974 0.666992 6.44308 0.666992C7.41746 0.666992 8.20737 1.45689 8.20737 2.43128C8.20737 2.78105 8.10558 3.10705 7.93002 3.38128H8.34308C9.16757 3.38128 9.83594 4.04965 9.83594 4.87414V5.95985C9.83594 6.39641 9.54149 6.76415 9.14038 6.87538C9.2186 7.86696 9.17327 8.86506 9.00509 9.84654C8.90467 10.4327 8.42864 10.8817 7.83768 10.9477L7.34124 11.0032C5.84235 11.1707 4.32952 11.1707 2.83063 11.0032L2.3342 10.9477C1.74323 10.8817 1.26722 10.4327 1.16679 9.84654C0.998598 8.86506 0.953296 7.86696 1.03151 6.87538C0.630383 6.76415 0.335938 6.39641 0.335938 5.95985V4.87414C0.335938 4.04965 1.00431 3.38128 1.82879 3.38128H2.24186C2.06629 3.10705 1.96451 2.78105 1.96451 2.43128ZM4.67879 2.43128C4.67879 1.90661 4.25347 1.48128 3.72879 1.48128C3.20412 1.48128 2.77879 1.90661 2.77879 2.43128C2.77879 2.95595 3.20412 3.38128 3.72879 3.38128C4.25347 3.38128 4.67879 2.95595 4.67879 2.43128ZM6.44308 3.38128C6.96775 3.38128 7.39308 2.95595 7.39308 2.43128C7.39308 1.90661 6.96775 1.48128 6.44308 1.48128C5.91841 1.48128 5.49308 1.90661 5.49308 2.43128C5.49308 2.95595 5.91841 3.38128 6.44308 3.38128ZM1.15022 4.87414C1.15022 4.49937 1.45403 4.19556 1.82879 4.19556H4.67879V6.09556H1.28594C1.21099 6.09556 1.15022 6.03482 1.15022 5.95985V4.87414ZM5.49308 6.90985H8.32625C8.40242 7.84389 8.36094 8.78434 8.20248 9.70904C8.16334 9.93758 7.97768 10.1127 7.74724 10.1384L7.2508 10.1939C6.66652 10.2592 6.08002 10.298 5.49308 10.3103V6.90985ZM5.49308 6.09556H8.88594C8.96091 6.09556 9.02165 6.03482 9.02165 5.95985V4.87414C9.02165 4.49937 8.71787 4.19556 8.34308 4.19556H5.49308V6.09556ZM4.67879 6.90985V10.3103C4.09186 10.298 3.50537 10.2592 2.92107 10.1939L2.42465 10.1384C2.19418 10.1127 2.00855 9.93758 1.96938 9.70904C1.81092 8.78434 1.76948 7.84389 1.84564 6.90985H4.67879Z" fill="url(#paint0_linear)"/>
<defs>
<linearGradient id="paint0_linear" x1="5.11782" y1="-8.37248" x2="5.11782" y2="11.1288" gradientUnits="userSpaceOnUse">
<stop stop-color="#B61A09"/>
<stop offset="1" stop-color="#FF6D2E"/>
</linearGradient>
</defs>
</svg>
