<?xml version="1.0" ?><svg xmlns="http://www.w3.org/2000/svg" width="15" height="24" viewBox="0 0 15 24" fill="none">
<path d="M11.8627 13.0773L12.9744 12L11.8627 10.9227L2.23569 1.59474C2.22474 1.58413 2.22167 1.57734 2.22074 1.57511C2.2194 1.57192 2.21875 1.56864 2.21875 1.56522C2.21875 1.56179 2.2194 1.55852 2.22074 1.55532C2.22167 1.55309 2.22474 1.5463 2.23569 1.5357C2.25534 1.51665 2.28758 1.5 2.33413 1.5C2.38069 1.5 2.41292 1.51665 2.43258 1.5357L13.2018 11.9705C13.2128 11.9811 13.2158 11.9879 13.2168 11.9901C13.2181 11.9933 13.2187 11.9966 13.2187 12C13.2187 12.0034 13.2181 12.0067 13.2168 12.0099C13.2158 12.0121 13.2128 12.0189 13.2018 12.0295L2.43258 22.4643C2.41293 22.4834 2.38069 22.5 2.33413 22.5C2.28758 22.5 2.25534 22.4834 2.23569 22.4643C2.22474 22.4537 2.22168 22.4469 2.22074 22.4447C2.2194 22.4415 2.21875 22.4382 2.21875 22.4348C2.21875 22.4314 2.2194 22.4281 2.22074 22.4249C2.22168 22.4227 2.22474 22.4159 2.23569 22.4053L11.8627 13.0773Z" fill="white" stroke="white" stroke-width="3" transform="scale(-1,1) translate(-15.0,0)"/>
</svg>