<svg width="30" height="31" viewBox="0 0 30 31" fill="none" xmlns="http://www.w3.org/2000/svg">
<g opacity="0.9">
<path d="M29.2091 15.0409C29.2091 22.8912 22.8447 29.2911 15 29.2911C7.15534 29.2911 0.790888 22.8912 0.790888 15.0409C0.790889 7.19057 7.15534 0.790605 15 0.790606C22.8447 0.790608 29.2091 7.19058 29.2091 15.0409Z" fill="black" fill-opacity="0.2" stroke="white" stroke-width="1.58178"/>
<path d="M20.6689 16.3219C21.4437 15.6734 21.4437 14.4083 20.6689 13.7599C18.3275 11.8004 15.713 10.2558 12.9232 9.18417L12.4136 8.98838C11.4385 8.61382 10.4086 9.32735 10.2766 10.416C9.9078 13.4576 9.9078 16.6241 10.2766 19.6658C10.4086 20.7545 11.4385 21.4679 12.4136 21.0934L12.9232 20.8976C15.713 19.826 18.3275 18.2814 20.6689 16.3219Z" fill="white"/>
</g>
</svg>
