<svg width="12" height="10" viewBox="0 0 12 10" fill="none" xmlns="http://www.w3.org/2000/svg">
<path d="M4.89663 6.79593C5.09335 6.56219 5.27564 6.34612 5.45681 6.12949C6.4981 4.88332 7.53911 3.63715 8.58013 2.39069C9.00657 1.87999 9.4333 1.36957 9.85892 0.858024C10.016 0.669456 10.062 0.663564 10.2338 0.832489C10.7903 1.38023 11.3461 1.9291 11.9013 2.47824C12.0325 2.60816 12.0328 2.68814 11.9013 2.8203C10.1527 4.57662 8.40366 6.33237 6.65459 8.08784C6.41514 8.32832 6.17376 8.56684 5.93431 8.80732C5.30782 9.43644 4.49515 9.44177 3.86977 8.81686C2.73498 7.68321 1.60213 6.5476 0.468171 5.4131C0.339987 5.28487 0.207918 5.16056 0.0819533 5.03008C-0.0270865 4.91699 -0.0276414 4.84039 0.0822308 4.73095C0.616054 4.19976 1.15099 3.6697 1.68731 3.14076C1.80245 3.02711 1.88402 3.04142 1.99695 3.18229C2.92809 4.34456 3.85923 5.50683 4.79064 6.6691C4.81867 6.70473 4.84891 6.73897 4.89663 6.79593Z" fill="white"/>
</svg>
