<svg width="25" height="25" viewBox="0 0 25 25" fill="none" xmlns="http://www.w3.org/2000/svg">
<path d="M15.7899 3.29019L7.28994 11.7902C7.19621 11.8831 7.12182 11.9937 7.07105 12.1156C7.02028 12.2375 6.99414 12.3682 6.99414 12.5002C6.99414 12.6322 7.02028 12.7629 7.07105 12.8848C7.12182 13.0066 7.19621 13.1172 7.28994 13.2102L15.7899 21.7102C15.9782 21.8985 16.2336 22.0043 16.4999 22.0043C16.7662 22.0043 17.0216 21.8985 17.2099 21.7102C17.3982 21.5219 17.504 21.2665 17.504 21.0002C17.504 20.7339 17.3982 20.4785 17.2099 20.2902L9.40994 12.5002L17.2099 4.71019C17.3032 4.61695 17.3771 4.50626 17.4276 4.38443C17.4781 4.26261 17.504 4.13204 17.504 4.00019C17.504 3.86833 17.4781 3.73776 17.4276 3.61594C17.3771 3.49411 17.3032 3.38342 17.2099 3.29019C17.1167 3.19695 17.006 3.12299 16.8842 3.07253C16.7624 3.02207 16.6318 2.99609 16.4999 2.99609C16.3681 2.99609 16.2375 3.02207 16.1157 3.07253C15.9939 3.12299 15.8832 3.19695 15.7899 3.29019Z" fill="white"/>
</svg>
