<svg width="20" height="23" viewBox="0 0 20 23" fill="none" xmlns="http://www.w3.org/2000/svg">
<path fill-rule="evenodd" clip-rule="evenodd" d="M9.65783 0C11.161 0 12.5219 0.616538 13.507 1.61335C14.492 2.61015 15.1013 3.98723 15.1013 5.50831C15.1013 7.16262 14.3806 8.6466 13.2396 9.6563C15.0826 10.6912 16.6078 11.9576 17.6751 13.5618C18.7111 15.1188 19.3157 16.9943 19.3157 19.0125C19.3157 19.5908 19.1187 20.0737 18.7578 20.4751C18.357 20.921 17.7597 21.2666 17.0127 21.5366C15.2244 22.1829 12.592 22.3886 9.65783 22.3886C6.72369 22.3886 4.09127 22.1829 2.30294 21.5366C1.55597 21.2666 0.958622 20.921 0.557822 20.4751C0.196956 20.0737 0 19.5908 0 19.0125C0 16.9943 0.604568 15.1189 1.64055 13.5617C2.70794 11.9574 4.23318 10.6908 6.02682 9.95389C4.93501 8.64653 4.21432 7.16258 4.21432 5.50831C4.21432 3.98723 4.82361 2.61015 5.80869 1.61335C6.79377 0.616538 8.15465 0 9.65783 0Z" fill="url(#paint0_linear)" fill-opacity="0.5"/>
<defs>
<linearGradient id="paint0_linear" x1="4.3762" y1="8.41937e-07" x2="30.6636" y2="26.8327" gradientUnits="userSpaceOnUse">
<stop stop-color="white" stop-opacity="0.4"/>
<stop offset="1" stop-color="white" stop-opacity="0"/>
</linearGradient>
</defs>
</svg>
