<svg width="97" height="22" viewBox="0 0 97 22" fill="none" xmlns="http://www.w3.org/2000/svg">
<path d="M48.9783 11.8941V13.9724H53.7585C53.3749 15.7467 52.1042 17.2797 49.825 17.2797C47.1623 17.2797 45.1857 15.2222 45.1857 12.4186C45.1857 9.57573 47.1623 7.55878 49.825 7.55878C50.5067 7.56293 51.1778 7.72748 51.7841 8.03914C52.3904 8.3508 52.9148 8.80079 53.3149 9.35272L55.2301 8.24376C54.1616 6.71081 52.4473 5.46094 49.825 5.46094C45.9124 5.46094 42.7656 8.18371 42.7656 12.4186C42.7656 16.6339 45.9124 19.3971 49.6228 19.3971C53.8589 19.3971 56.3195 16.4525 56.3195 11.8941H48.9783Z" fill="url(#paint0_linear_7244_9964)"/>
<path d="M76.3601 17.0763V5.70117H74V19.1533H82.2897V17.0763H76.3601Z" fill="url(#paint1_linear_7244_9964)"/>
<path d="M88.8145 5.70117H83.8125V19.1533H88.8353C93.0298 19.1533 95.8543 16.3901 95.8543 12.4175C95.8543 8.484 93.0298 5.70117 88.8145 5.70117ZM88.8145 17.0763H86.1726V7.77819H88.8353C91.8203 7.77819 93.4341 9.83559 93.4341 12.4175C93.4341 14.9785 91.7394 17.0763 88.8145 17.0763Z" fill="url(#paint2_linear_7244_9964)"/>
<path d="M18.3234 3.02758V7.8527C18.3233 7.91899 18.3384 7.98444 18.3676 8.04412C18.3967 8.10381 18.4392 8.15618 18.4918 8.1973C18.5444 8.23842 18.6057 8.26721 18.6711 8.28152C18.7366 8.29584 18.8045 8.29529 18.8697 8.27992C19.7749 8.0643 20.7028 7.95509 21.6339 7.95459C24.5873 7.95459 26.0641 9.40683 26.0643 12.3113V20.5596C26.0643 20.6764 26.0174 20.7884 25.9339 20.871C25.8504 20.9536 25.7371 21 25.619 21H21.9795C21.8614 21 21.7482 20.9536 21.6647 20.871C21.5812 20.7884 21.5342 20.6764 21.5343 20.5596V12.902C21.5343 12.2619 21.4264 11.8312 21.2108 11.6099C20.9948 11.3882 20.6796 11.2774 20.265 11.2774C19.7202 11.2913 19.1795 11.3753 18.6566 11.5272C18.5614 11.5523 18.4772 11.6077 18.417 11.6848C18.3568 11.7619 18.3239 11.8565 18.3234 11.9539V20.5596C18.3234 20.6764 18.2765 20.7884 18.193 20.871C18.1095 20.9536 17.9963 21 17.8782 21H14.3881C14.27 21 14.1567 20.9536 14.0732 20.871C13.9897 20.7884 13.9428 20.6764 13.9428 20.5596V3.24328C13.9428 3.13126 13.986 3.02345 14.0636 2.94181C14.1411 2.86017 14.2472 2.81083 14.3603 2.80383L17.8503 2.58813C17.911 2.58437 17.9719 2.59295 18.0291 2.61334C18.0863 2.63372 18.1387 2.66548 18.183 2.70666C18.2273 2.74783 18.2626 2.79755 18.2868 2.85275C18.3109 2.90794 18.3234 2.96744 18.3234 3.02758ZM12.7233 9.929C12.7233 6.58067 10.9875 4.90648 7.5159 4.90643C5.80964 4.90717 4.11749 5.21199 2.52057 5.80627C2.41909 5.84462 2.33533 5.91839 2.28511 6.01365C2.23489 6.10891 2.22169 6.21906 2.24801 6.32329L2.75957 8.38256C2.77356 8.43989 2.79913 8.49383 2.83474 8.54115C2.87035 8.58846 2.91527 8.62816 2.96679 8.65787C3.01831 8.68757 3.07537 8.70667 3.13455 8.71401C3.19373 8.72135 3.25379 8.71678 3.31114 8.70057C4.31951 8.41506 5.36396 8.2735 6.41283 8.28017C7.04535 8.28017 7.51991 8.39852 7.83651 8.63524C8.15285 8.87239 8.31102 9.32056 8.31105 9.97974V10.2557C8.31065 10.3215 8.29541 10.3864 8.26644 10.4456C8.23747 10.5048 8.19551 10.5569 8.1436 10.5981C8.0917 10.6393 8.03116 10.6685 7.9664 10.6835C7.90164 10.6986 7.83429 10.6993 7.76926 10.6854C7.12778 10.5642 6.47572 10.5063 5.82268 10.5126C4.43759 10.5126 3.28755 10.8423 2.37258 11.5019C1.45743 12.1613 0.999902 13.2098 1 14.6474C1 17.3363 2.97524 18.6808 6.92573 18.6808C9.04088 18.6808 10.8816 18.3718 12.4479 17.7538C12.5297 17.7207 12.5997 17.6641 12.6488 17.5914C12.6979 17.5186 12.7238 17.433 12.7233 17.3455L12.7233 9.929ZM5.23276 14.5459C5.24964 13.9712 5.42922 13.5484 5.7715 13.2775C6.14681 12.9963 6.6093 12.8529 7.07979 12.8718C7.38788 12.8699 7.69474 12.9102 7.99168 12.9915C8.08426 13.0182 8.16551 13.0741 8.22313 13.1505C8.28076 13.227 8.31162 13.32 8.31104 13.4154V15.4763C8.31199 15.576 8.27833 15.6731 8.21567 15.7513C8.15301 15.8295 8.06515 15.8841 7.96672 15.906C7.66636 15.9658 7.36053 15.9946 7.05416 15.992C5.83964 15.992 5.23251 15.51 5.23276 14.5459ZM39 9.929C39 6.58067 37.2642 4.90648 33.7926 4.90643C32.0864 4.90718 30.3942 5.212 28.7973 5.80628C28.6958 5.84463 28.6121 5.9184 28.5618 6.01366C28.5116 6.10892 28.4984 6.21907 28.5247 6.3233L29.0363 8.38257C29.0503 8.4399 29.0759 8.49384 29.1115 8.54115C29.1471 8.58847 29.192 8.62817 29.2435 8.65787C29.295 8.68758 29.3521 8.70668 29.4113 8.71402C29.4705 8.72135 29.5305 8.71679 29.5879 8.70058C30.5962 8.41507 31.6407 8.27351 32.6896 8.28018C33.3221 8.28018 33.7966 8.39853 34.1132 8.63525C34.4296 8.8724 34.5878 9.32057 34.5878 9.97975V10.2557C34.5874 10.3215 34.5721 10.3864 34.5432 10.4456C34.5142 10.5049 34.4722 10.557 34.4203 10.5981C34.3684 10.6393 34.3079 10.6685 34.2431 10.6836C34.1784 10.6986 34.111 10.6993 34.046 10.6854C33.4045 10.5642 32.7525 10.5063 32.0994 10.5126C30.7143 10.5126 29.5643 10.8423 28.6493 11.5019C27.7342 12.1613 27.2766 13.2098 27.2767 14.6474C27.2767 17.3363 29.252 18.6808 33.2025 18.6808C35.3176 18.6808 37.1583 18.3718 38.7246 17.7538C38.8065 17.7207 38.8764 17.6641 38.9255 17.5914C38.9746 17.5186 39.0005 17.433 39 17.3455L39 9.929ZM31.5095 14.5459C31.5264 13.9712 31.706 13.5484 32.0482 13.2775C32.4235 12.9963 32.886 12.8529 33.3565 12.8718C33.6646 12.8699 33.9715 12.9102 34.2684 12.9915C34.361 13.0182 34.4422 13.0741 34.4999 13.1505C34.5575 13.227 34.5884 13.32 34.5878 13.4154V15.4763C34.5887 15.576 34.5551 15.6731 34.4924 15.7513C34.4297 15.8295 34.3419 15.8841 34.2435 15.906C33.9431 15.9658 33.6373 15.9946 33.3309 15.992C32.1164 15.992 31.5092 15.51 31.5095 14.5459ZM23.4379 6.58952L27.6871 2.42157C27.7075 2.40156 27.7237 2.37773 27.7347 2.35147C27.7457 2.32521 27.7514 2.29705 27.7513 2.26862C27.7512 2.2402 27.7454 2.21207 27.7342 2.18589C27.723 2.1597 27.7066 2.13598 27.6861 2.11609L26.5963 1.06119C26.575 1.04057 26.5496 1.02452 26.5217 1.01403C26.4939 1.00354 26.4641 0.998846 26.4344 1.00024C26.4046 1.00163 26.3754 1.00908 26.3487 1.02213C26.3219 1.03517 26.2982 1.05352 26.279 1.07604L22.883 4.99707L20.9303 2.66613C20.9113 2.64293 20.8876 2.62392 20.8608 2.61029C20.8339 2.59667 20.8045 2.58874 20.7744 2.587C20.7443 2.58527 20.7141 2.58978 20.6858 2.60024C20.6576 2.61069 20.6318 2.62687 20.6102 2.64773L19.6082 3.61633C19.5876 3.63621 19.5712 3.65994 19.56 3.68613C19.5488 3.71233 19.543 3.74047 19.5429 3.76891C19.5428 3.79735 19.5484 3.82553 19.5594 3.8518C19.5704 3.87808 19.5866 3.90192 19.6071 3.92195L22.328 6.58961C22.4295 6.68915 22.5667 6.745 22.7096 6.745H23.0562C23.1992 6.74501 23.3364 6.68913 23.4379 6.58952Z" fill="white"/>
<path d="M65.1623 19.7465C69.2042 19.7465 72.4808 16.4698 72.4808 12.4279C72.4808 8.386 69.2042 5.10938 65.1623 5.10938C61.1204 5.10938 57.8438 8.386 57.8438 12.4279C57.8438 16.4698 61.1204 19.7465 65.1623 19.7465Z" fill="url(#paint3_linear_7244_9964)"/>
<path d="M64.957 15.0655L69.0352 11.0203C69.0548 11.0009 69.0703 10.9778 69.0809 10.9523C69.0914 10.9268 69.0968 10.8995 69.0967 10.8719C69.0966 10.8443 69.0911 10.817 69.0803 10.7916C69.0696 10.7662 69.0539 10.7431 69.0342 10.7238L67.9882 9.70002C67.9678 9.68 67.9434 9.66442 67.9167 9.65424C67.89 9.64406 67.8614 9.63951 67.8328 9.64086C67.8043 9.64221 67.7763 9.64944 67.7506 9.6621C67.7249 9.67476 67.7022 9.69257 67.6837 9.71443L64.4244 13.5199L62.5503 11.2577C62.5321 11.2351 62.5094 11.2167 62.4836 11.2035C62.4579 11.1902 62.4296 11.1825 62.4007 11.1809C62.3718 11.1792 62.3428 11.1836 62.3157 11.1937C62.2886 11.2039 62.2639 11.2196 62.2431 11.2398L61.2814 12.1799C61.2617 12.1992 61.246 12.2222 61.2352 12.2476C61.2244 12.273 61.2189 12.3003 61.2188 12.3279C61.2187 12.3555 61.224 12.3829 61.2346 12.4084C61.2452 12.4339 61.2607 12.457 61.2803 12.4765L63.8917 15.0655C63.9892 15.1621 64.1208 15.2164 64.258 15.2164H64.5906C64.7279 15.2164 64.8596 15.1621 64.957 15.0655Z" fill="#603913"/>
<defs>
<linearGradient id="paint0_linear_7244_9964" x1="46.4841" y1="-0.462855" x2="51.4798" y2="20.9037" gradientUnits="userSpaceOnUse">
<stop stop-color="#BE965D"/>
<stop offset="0.1555" stop-color="#976F40"/>
<stop offset="0.2438" stop-color="#C99B61"/>
<stop offset="0.32313" stop-color="#F0BE7B"/>
<stop offset="0.36447" stop-color="#FFCB85"/>
<stop offset="0.50278" stop-color="#EEBC79"/>
<stop offset="0.77705" stop-color="#C0935B"/>
<stop offset="1" stop-color="#976F40"/>
</linearGradient>
<linearGradient id="paint1_linear_7244_9964" x1="76.2742" y1="-0.0168857" x2="83.339" y2="19.1281" gradientUnits="userSpaceOnUse">
<stop stop-color="#BE965D"/>
<stop offset="0.1555" stop-color="#976F40"/>
<stop offset="0.2438" stop-color="#C99B61"/>
<stop offset="0.32313" stop-color="#F0BE7B"/>
<stop offset="0.36447" stop-color="#FFCB85"/>
<stop offset="0.50278" stop-color="#EEBC79"/>
<stop offset="0.77705" stop-color="#C0935B"/>
<stop offset="1" stop-color="#976F40"/>
</linearGradient>
<linearGradient id="paint2_linear_7244_9964" x1="87.1161" y1="-0.0168857" x2="92.3068" y2="20.4165" gradientUnits="userSpaceOnUse">
<stop stop-color="#BE965D"/>
<stop offset="0.1555" stop-color="#976F40"/>
<stop offset="0.2438" stop-color="#C99B61"/>
<stop offset="0.32313" stop-color="#F0BE7B"/>
<stop offset="0.36447" stop-color="#FFCB85"/>
<stop offset="0.50278" stop-color="#EEBC79"/>
<stop offset="0.77705" stop-color="#C0935B"/>
<stop offset="1" stop-color="#976F40"/>
</linearGradient>
<linearGradient id="paint3_linear_7244_9964" x1="61.8594" y1="-1.11236" x2="66.9768" y2="21.392" gradientUnits="userSpaceOnUse">
<stop stop-color="#BE965D"/>
<stop offset="0.1555" stop-color="#976F40"/>
<stop offset="0.2438" stop-color="#C99B61"/>
<stop offset="0.32313" stop-color="#F0BE7B"/>
<stop offset="0.36447" stop-color="#FFCB85"/>
<stop offset="0.50278" stop-color="#EEBC79"/>
<stop offset="0.77705" stop-color="#C0935B"/>
<stop offset="1" stop-color="#976F40"/>
</linearGradient>
</defs>
</svg>
