<svg width="14" height="16" viewBox="0 0 14 16" fill="none" xmlns="http://www.w3.org/2000/svg">
<path d="M6.72656 2.03516C10.3516 2.03516 13.2891 4.97266 13.2891 8.59766C13.2891 12.2227 10.3516 15.1602 6.72656 15.1602C3.10156 15.1602 0.164062 12.2227 0.164062 8.59766C0.164062 4.97266 3.10156 2.03516 6.72656 2.03516ZM6.72656 3.04766C3.66406 3.04766 1.17656 5.53516 1.17656 8.59766C1.17656 11.6602 3.66406 14.1477 6.72656 14.1477C9.78906 14.1477 12.2766 11.6602 12.2766 8.59766C12.2766 5.53516 9.78906 3.04766 6.72656 3.04766ZM6.72656 5.27266C7.00156 5.27266 7.22656 5.49766 7.22656 5.77266V9.06016L8.86406 10.6977C9.06406 10.8977 9.06406 11.2102 8.86406 11.4102C8.66406 11.6102 8.35156 11.6102 8.15156 11.4102L6.36406 9.63516C6.27656 9.53516 6.22656 9.41016 6.22656 9.27266V5.77266C6.22656 5.49766 6.45156 5.27266 6.72656 5.27266Z" fill="url(#paint0_linear)"/>
<path d="M13.5202 3.12592C13.3452 3.32592 13.0452 3.33842 12.8452 3.16342L10.8202 1.32592C10.6202 1.15092 10.6077 0.850918 10.7827 0.663418C10.9577 0.463418 11.2577 0.450918 11.4577 0.625918L13.4952 2.46342C13.6827 2.63842 13.6952 2.93842 13.5202 3.12592Z" fill="url(#paint1_linear)"/>
<path d="M0.290469 3.1238C0.465469 3.3238 0.765469 3.3363 0.965469 3.1613L3.00297 1.3238C3.20297 1.1488 3.21547 0.848801 3.04047 0.648801C2.85297 0.461301 2.55297 0.448801 2.35297 0.623801L0.327969 2.4613C0.127969 2.6363 0.115469 2.9363 0.290469 3.1238Z" fill="url(#paint2_linear)"/>
<defs>
<linearGradient id="paint0_linear" x1="8.7686" y1="-9.30544" x2="8.7686" y2="15.1602" gradientUnits="userSpaceOnUse">
<stop stop-color="#B61A09"/>
<stop offset="1" stop-color="#FF6D2E"/>
</linearGradient>
<linearGradient id="paint1_linear" x1="12.6163" y1="-1.90079" x2="12.6163" y2="3.28592" gradientUnits="userSpaceOnUse">
<stop stop-color="#B61A09"/>
<stop offset="1" stop-color="#FF6D2E"/>
</linearGradient>
<linearGradient id="paint2_linear" x1="2.13144" y1="-1.90533" x2="2.13144" y2="3.2838" gradientUnits="userSpaceOnUse">
<stop stop-color="#B61A09"/>
<stop offset="1" stop-color="#FF6D2E"/>
</linearGradient>
</defs>
</svg>
