<svg width="206" height="206" viewBox="0 0 206 206" fill="none" xmlns="http://www.w3.org/2000/svg">
<circle cx="103" cy="103" r="103" fill="#2D3037"/>
<path fill-rule="evenodd" clip-rule="evenodd" d="M93.6438 68.792C93.6438 63.3382 98.065 58.917 103.519 58.917C108.973 58.917 113.394 63.3382 113.394 68.792V73.7087H93.6438V68.792ZM123.394 68.792V73.7087H128.994C136.819 73.7087 143.315 79.7566 143.872 87.5626L147.414 137.146C148.031 145.781 141.192 153.125 132.535 153.125H74.5024C65.8456 153.125 59.0069 145.781 59.6236 137.146L63.1653 87.5626C63.7229 79.7566 70.2182 73.7087 78.0441 73.7087H83.6438V68.792C83.6438 57.8153 92.5421 48.917 103.519 48.917C114.495 48.917 123.394 57.8153 123.394 68.792ZM73.1399 88.275C73.3237 85.7021 75.4646 83.7087 78.0441 83.7087H88.6438H118.394H128.994C131.573 83.7087 133.714 85.7021 133.898 88.275L137.439 137.858C137.643 140.704 135.389 143.125 132.535 143.125H74.5024C71.649 143.125 69.3949 140.704 69.5982 137.858L73.1399 88.275ZM91.5879 98.1286V127.368C91.5879 128.923 93.2839 129.883 94.6169 129.083L118.983 114.463C120.278 113.687 120.278 111.81 118.983 111.033L94.6169 96.4137C93.2839 95.6138 91.5879 96.5741 91.5879 98.1286Z" fill="#AB7259" fill-opacity="0.7"/>
</svg>
