<svg width="164" height="165" viewBox="0 0 164 165" fill="none" xmlns="http://www.w3.org/2000/svg">
<path d="M78.5827 34.2399C81.7823 34.2399 84.3762 36.8337 84.3762 40.0333V72.8631H117.206C120.139 72.8631 122.563 75.0426 122.946 77.8704L122.999 78.6565C122.999 81.8562 120.406 84.45 117.206 84.45H84.3684L84.3762 117.28C84.3762 120.213 82.1966 122.637 79.3688 123.02L78.5827 123.073C75.383 123.073 72.7892 120.479 72.7892 117.28L72.7815 84.45H39.9595C37.0265 84.45 34.6025 82.2705 34.2189 79.4427L34.166 78.6565C34.166 75.4569 36.7598 72.8631 39.9595 72.8631H72.7892V40.0333C72.7892 37.1003 74.9687 34.6764 77.7965 34.2928L78.5827 34.2399Z" fill="#AB7259" fill-opacity="0.7"/>
</svg>
