<svg width="16" height="16" viewBox="0 0 16 16" fill="none" xmlns="http://www.w3.org/2000/svg">
<path d="M12.7624 4.4464H10.568V3.95484C10.568 3.01562 9.8043 2.25195 8.86508 2.25195H7.00419C6.06497 2.25195 5.3013 3.01562 5.3013 3.95484V4.4464H3.10686C2.86547 4.4464 2.66797 4.6439 2.66797 4.88529C2.66797 5.12668 2.86547 5.32418 3.10686 5.32418H3.54575V13.3295C3.54575 14.4838 4.48058 15.4186 5.63486 15.4186H10.2344C11.3887 15.4186 12.3235 14.4838 12.3235 13.3295V5.32418H12.7624C13.0038 5.32418 13.2013 5.12668 13.2013 4.88529C13.2013 4.6439 13.0038 4.4464 12.7624 4.4464ZM6.17908 3.95484C6.17908 3.4984 6.54775 3.12973 7.00419 3.12973H8.86508C9.32152 3.12973 9.69019 3.4984 9.69019 3.95484V4.4464H6.17908V3.95484ZM11.4457 13.3295C11.4457 13.9966 10.9015 14.5408 10.2344 14.5408H5.63486C4.96775 14.5408 4.42352 13.9966 4.42352 13.3295V5.32418H11.4457V13.3295Z" fill="#ffffff"/>
<path d="M6.61858 7.07812C6.37719 7.07812 6.17969 7.27562 6.17969 7.51701V12.3448C6.17969 12.5862 6.37719 12.7837 6.61858 12.7837C6.85997 12.7837 7.05747 12.5862 7.05747 12.3448V7.51701C7.05747 7.27562 6.85997 7.07812 6.61858 7.07812Z" fill="#ffffff"/>
<path d="M9.25139 7.07812C9.01 7.07812 8.8125 7.27562 8.8125 7.51701V12.3448C8.8125 12.5862 9.01 12.7837 9.25139 12.7837C9.49278 12.7837 9.69028 12.5862 9.69028 12.3448V7.51701C9.69028 7.27562 9.49278 7.07812 9.25139 7.07812Z" fill="#ffffff"/>
</svg>
