<svg width="18" height="18" viewBox="0 0 18 13" fill="none"
    xmlns="http://www.w3.org/2000/svg">
    <path d="M10.8462 0.305176C12.2149 0.305176 13.3306 1.38842 13.3827 2.74436L15.7847 1.78413C16.613 1.45279 17.5531 1.85569 17.8845 2.68404C17.9608 2.87485 18 3.07847 18 3.28398V9.78791C18 10.6801 17.2768 11.4033 16.3846 11.4033C16.1791 11.4033 15.9755 11.3641 15.7847 11.2878L13.381 10.3262L13.3792 10.3952C13.2933 11.7193 12.192 12.7667 10.8462 12.7667H2.53846C1.13651 12.7667 0 11.6302 0 10.2283V2.84364C0 1.44168 1.13651 0.305176 2.53846 0.305176H10.8462ZM10.8462 1.68979H2.53846C1.90121 1.68979 1.38462 2.20639 1.38462 2.84364V10.2283C1.38462 10.8655 1.90121 11.3821 2.53846 11.3821H10.8462C11.4834 11.3821 12 10.8655 12 10.2283V2.84364C12 2.20639 11.4834 1.68979 10.8462 1.68979ZM16.2989 3.06971L13.3846 4.23543V8.83646L16.2989 10.0022C16.3262 10.0131 16.3553 10.0187 16.3846 10.0187C16.5121 10.0187 16.6154 9.91536 16.6154 9.78791V3.28398C16.6154 3.25462 16.6098 3.22553 16.5989 3.19827C16.5515 3.07994 16.4172 3.02238 16.2989 3.06971Z" fill="url(#paint0_linear_2906_1679)"/>
    <defs>
        <linearGradient id="paint0_linear_2906_1679" x1="9.0604" y1="-10.4622" x2="9.0604" y2="12.7667" gradientUnits="userSpaceOnUse">
            <stop stop-color="#B61A09"/>
            <stop offset="1" stop-color="#FF6D2E"/>
        </linearGradient>
    </defs>
</svg>
