<svg width="24" height="24" viewBox="0 0 24 24" fill="none" xmlns="http://www.w3.org/2000/svg">
<path d="M10.2703 4C6.8073 4 4 6.8073 4 10.2703C4 13.7332 6.8073 16.5405 10.2703 16.5405C11.7681 16.5405 13.1433 16.0153 14.2217 15.139L18.8927 19.81C19.146 20.0633 19.5567 20.0633 19.81 19.81C20.0633 19.5567 20.0633 19.146 19.81 18.8927L15.139 14.2217C16.0153 13.1433 16.5405 11.7681 16.5405 10.2703C16.5405 6.8073 13.7332 4 10.2703 4ZM10.2703 5.2973C13.0168 5.2973 15.2432 7.52377 15.2432 10.2703C15.2432 13.0168 13.0168 15.2432 10.2703 15.2432C7.52378 15.2432 5.2973 13.0168 5.2973 10.2703C5.2973 7.52377 7.52378 5.2973 10.2703 5.2973Z" fill="white"/>
</svg>
