<svg width="11" height="9" viewBox="0 0 11 9" fill="none" xmlns="http://www.w3.org/2000/svg">
<path d="M4.49132 6.16789C6.02199 4.31928 7.53331 2.46123 9.05787 0.608158C9.17747 0.462208 9.23269 0.45985 9.36782 0.595057C9.88109 1.10916 10.3939 1.62378 10.9064 2.13841C11.0295 2.26182 11.0316 2.34515 10.9102 2.46909C9.04922 4.35963 7.20886 6.27375 5.33643 8.15172C4.8201 8.63175 4.07653 8.60529 3.58208 8.10141C2.73265 7.23593 1.88397 6.36966 1.03428 5.50444C0.724079 5.18843 0.411329 4.87504 0.10087 4.55903C-0.0329835 4.42278 -0.0334925 4.35518 0.0985799 4.2218C0.576483 3.73915 1.05515 3.25727 1.53407 2.7754C1.65011 2.6588 1.72467 2.6664 1.82799 2.79794C2.72018 3.91864 3.58615 5.05925 4.49132 6.16789Z" fill="white"/>
</svg>
